<?xml version="1.0" encoding="UTF-8" standalone="no"?>
<!-- Created with Inkscape (http://www.inkscape.org/) -->

<svg
   xmlns:dc="http://purl.org/dc/elements/1.1/"
   xmlns:cc="http://creativecommons.org/ns#"
   xmlns:rdf="http://www.w3.org/1999/02/22-rdf-syntax-ns#"
   xmlns:svg="http://www.w3.org/2000/svg"
   xmlns="http://www.w3.org/2000/svg"
   xmlns:sodipodi="http://sodipodi.sourceforge.net/DTD/sodipodi-0.dtd"
   xmlns:inkscape="http://www.inkscape.org/namespaces/inkscape"
   width="66.040001mm"
   height="66.040001mm"
   viewBox="0 0 234 234"
   id="svg2"
   version="1.1"
   inkscape:version="0.91 r13725"
   sodipodi:docname="icon-avatar.svg">
  <defs
     id="defs4" />
  <sodipodi:namedview
     id="base"
     pagecolor="#ffffff"
     bordercolor="#666666"
     borderopacity="1.0"
     inkscape:pageopacity="0.0"
     inkscape:pageshadow="2"
     inkscape:zoom="1.979899"
     inkscape:cx="81.821883"
     inkscape:cy="86.180995"
     inkscape:document-units="px"
     inkscape:current-layer="layer4"
     showgrid="false"
     fit-margin-top="0"
     fit-margin-left="0"
     fit-margin-right="0"
     fit-margin-bottom="0"
     inkscape:window-width="1655"
     inkscape:window-height="1116"
     inkscape:window-x="909"
     inkscape:window-y="97"
     inkscape:window-maximized="0" />
  <metadata
     id="metadata7">
    <rdf:RDF>
      <cc:Work
         rdf:about="">
        <dc:format>image/svg+xml</dc:format>
        <dc:type
           rdf:resource="http://purl.org/dc/dcmitype/StillImage" />
        <dc:title></dc:title>
      </cc:Work>
    </rdf:RDF>
  </metadata>
  <g
     inkscape:groupmode="layer"
     id="layer4"
     inkscape:label="Layer 3"
     transform="translate(-13.316406,-3.203125)">
    <path
       style="fill:#f8aa7c;fill-opacity:1;fill-rule:evenodd;stroke:none"
       d="m 130.31641,3.203125 c -64.617044,0 -117.000004,52.382996 -117.000004,116.999995 0,64.61748 52.38296,117 117.000004,117 64.617,10e-6 117,-52.38251 117,-117 0,-64.616999 -52.383,-116.999995 -117,-116.999995 z"
       id="path4146"
       inkscape:connector-curvature="0" />
  </g>
  <g
     inkscape:label="Layer 1"
     inkscape:groupmode="layer"
     id="layer1"
     transform="translate(-245.85674,-309.64841)"
     style="display:inline">
    <path
       d="m 362.85703,353.63966 c 40.32137,0 73.00837,32.687 73.00837,73.00813 0,40.32138 -32.687,73.00837 -73.00837,73.00837 -40.32113,0 -73.00813,-32.68699 -73.00813,-73.00837 0,-40.32113 32.687,-73.00813 73.00813,-73.00813"
       style="fill:#1f1b20;fill-opacity:1;fill-rule:evenodd;stroke:none"
       id="path4148"
       inkscape:connector-curvature="0" />
    <path
       d="m 362.85722,373.67935 c 29.2535,0 52.96849,23.715 52.96849,52.9685 0,29.25363 -23.715,52.96862 -52.96849,52.96862 -29.25363,0 -52.96863,-23.715 -52.96863,-52.96862 0,-29.2535 23.715,-52.9685 52.96863,-52.9685"
       style="fill:#ffffff;fill-opacity:1;fill-rule:evenodd;stroke:none"
       id="path4150"
       inkscape:connector-curvature="0" />
    <path
       d="m 362.85715,397.39791 c 16.15425,0 29.25,13.09575 29.25,29.25 0,16.15437 -13.09575,29.25 -29.25,29.25 -16.15426,0 -29.25,-13.09563 -29.25,-29.25 0,-16.15425 13.09574,-29.25 29.25,-29.25"
       style="fill:#1f1b20;fill-opacity:1;fill-rule:evenodd;stroke:none"
       id="path4152"
       inkscape:connector-curvature="0" />
    <g
       id="g4154"
       transform="matrix(1.25,0,0,-1.25,185.69212,600.26923)">
      <path
         d="m 214.5461,126.0547 -22.062,3.8911 0.9153,5.1908 6.7243,2.111 c 0,0 0.2461,-1.6637 3.7732,-3.5943 0.8496,-0.4649 1.9704,-1.1322 3.547,-1.7703 1.925,-0.7798 3.3236,-1.2512 4.4442,-1.5775 1.2795,-0.3724 2.8423,-0.6383 3.0087,-2.0715 0.0263,-0.2282 -0.2319,-1.5395 -0.3507,-2.1793 m 0,0 -22.062,3.8911 -0.9156,-5.1905 5.5964,-4.284 c 0,0 0.8002,1.4791 4.7753,2.0866 0.9572,0.1463 2.2388,0.3898 3.9384,0.4501 2.0755,0.074 3.5513,0.0386 4.7157,-0.0382 1.3298,-0.0876 2.8891,-0.3725 3.5357,0.9173 0.1029,0.2055 0.3087,1.5261 0.4161,2.1676"
         style="fill:#1f1b20;fill-opacity:1;fill-rule:evenodd;stroke:none"
         id="path4156"
         inkscape:connector-curvature="0" />
      <path
         d="m 189.2585,195.5367 -14.4003,-17.1615 4.0377,-3.388 6.5081,2.7051 c 0,0 -0.8808,1.4324 0.5805,5.1786 0.3518,0.9023 0.7815,2.1337 1.5792,3.636 0.9737,1.8346 1.7422,3.0946 2.3907,4.0649 0.7407,1.1078 1.7671,2.3159 0.9734,3.5206 -0.1264,0.1919 -1.1673,1.0304 -1.6693,1.4443 m 0,0 -14.4003,-17.1615 -4.0373,3.3879 1.5335,6.8789 c 0,0 1.5639,-0.6185 4.9995,1.4709 0.8271,0.5031 1.9655,1.1404 3.3063,2.1866 1.6376,1.2776 2.7453,2.253 3.5881,3.0603 0.9623,0.9218 1.9737,2.1424 3.2981,1.5698 0.2109,-0.091 1.2175,-0.9705 1.7121,-1.3929"
         style="fill:#1f1b20;fill-opacity:1;fill-rule:evenodd;stroke:none"
         id="path4158"
         inkscape:connector-curvature="0" />
      <path
         d="m 205.7658,175.8631 -19.4017,-11.2005 -2.6354,4.5649 3.7944,5.9391 c 0,0 1.2578,-1.1162 5.2008,-0.3279 0.9496,0.1899 2.2371,0.3994 3.8548,0.9238 1.976,0.6403 3.3506,1.1781 4.4187,1.6483 1.2194,0.5372 2.5874,1.338 3.636,0.347 0.1672,-0.1579 0.8121,-1.3283 1.1324,-1.8947 m 0,0 -19.4017,-11.2005 2.635,-4.5646 7.041,0.3154 c 0,0 -0.3379,1.6475 2.3168,4.6679 0.6392,0.7276 1.4644,1.7376 2.7275,2.8766 1.5426,1.3909 2.6957,2.3122 3.6371,3.0018 1.0749,0.7875 2.4525,1.5719 2.1189,2.9753 -0.0533,0.2236 -0.7444,1.3677 -1.0746,1.9281"
         style="fill:#1f1b20;fill-opacity:1;fill-rule:evenodd;stroke:none"
         id="path4160"
         inkscape:connector-curvature="0" />
      <path
         d="m 214.5467,151.7363 -22.0624,-3.8903 0.9154,-5.1908 6.7243,-2.1112 c 0,0 0.246,1.6637 3.7732,3.5943 0.8495,0.4649 1.9704,1.1319 3.547,1.77 1.925,0.7795 3.3239,1.2512 4.4444,1.5772 1.2793,0.3725 2.842,0.6383 3.0084,2.0713 0.0267,0.2284 -0.2316,1.5397 -0.3503,2.1795 m 0,0 -22.0624,-3.8903 -0.9153,5.1906 5.5968,4.284 c 0,0 0.8002,-1.4794 4.7749,-2.0869 0.9573,-0.1466 2.2388,-0.39 3.9385,-0.4504 2.0758,-0.074 3.5512,-0.0386 4.716,0.038 1.3294,0.0876 2.8888,0.3724 3.5354,-0.9173 0.1028,-0.2055 0.3086,-1.5262 0.4161,-2.1677"
         style="fill:#1f1b20;fill-opacity:1;fill-rule:evenodd;stroke:none"
         id="path4162"
         inkscape:connector-curvature="0" />
      <path
         d="m 167.0236,208.3748 -7.6632,-21.0515 -4.9527,1.8028 -0.9114,6.9889 c 0,0 1.6813,-0.0465 4.195,3.0917 0.6052,0.7557 1.457,1.7439 2.3593,3.1856 1.1021,1.7606 1.8094,3.056 2.3253,4.1028 0.5887,1.1954 1.1219,2.6881 2.5622,2.6031 0.2293,-0.0136 1.476,-0.4955 2.0855,-0.7234 m 0,0 -7.6632,-21.0515 4.9527,-1.8028 5.1908,4.7676 c 0,0 -1.3176,1.0448 -1.2257,5.0649 0.0221,0.968 0.005,2.2723 0.2406,3.9566 0.2875,2.0571 0.5786,3.5042 0.8564,4.6378 0.3175,1.294 0.8685,2.7802 -0.2892,3.6411 -0.1845,0.1369 -1.4493,0.5692 -2.0624,0.7863"
         style="fill:#1f1b20;fill-opacity:1;fill-rule:evenodd;stroke:none"
         id="path4164"
         inkscape:connector-curvature="0" />
      <path
         d="m 205.7644,101.9282 -19.4015,11.2014 -2.6353,-4.5647 3.7938,-5.9394 c 0,0 1.2581,1.1163 5.2011,0.3277 0.9496,-0.1899 2.2371,-0.3994 3.8548,-0.9238 1.9757,-0.6404 3.3503,-1.1784 4.4184,-1.6486 1.2194,-0.5372 2.5874,-1.338 3.636,-0.3473 0.1672,0.1579 0.8121,1.3283 1.1327,1.8947 m 0,0 -19.4015,11.2014 2.6354,4.5646 7.0407,-0.3161 c 0,0 -0.3376,-1.6475 2.3167,-4.6678 0.6393,-0.7273 1.4644,-1.7376 2.7275,-2.8766 1.5424,-1.3909 2.6955,-2.3122 3.6369,-3.0021 1.0749,-0.7875 2.4525,-1.5719 2.1186,-2.9753 -0.053,-0.2236 -0.7444,-1.3674 -1.0743,-1.9281"
         style="fill:#1f1b20;fill-opacity:1;fill-rule:evenodd;stroke:none"
         id="path4166"
         inkscape:connector-curvature="0" />
      <path
         d="m 116.447,208.3768 7.6614,-21.0518 -4.9529,-1.8025 -5.1903,4.7678 c 0,0 1.3176,1.0449 1.226,5.065 -0.0221,0.968 -0.005,2.2722 -0.2404,3.9566 -0.2871,2.0571 -0.5782,3.5042 -0.856,4.6377 -0.3172,1.2943 -0.8683,2.7805 0.2897,3.6411 0.1845,0.1372 1.4493,0.569 2.0625,0.7861 m 0,0 7.6614,-21.0518 4.953,1.8023 0.9116,6.9888 c 0,0 -1.6809,-0.0465 -4.1944,3.092 -0.6055,0.7557 -1.457,1.7439 -2.3593,3.1859 -1.1018,1.7606 -1.8087,3.056 -2.3247,4.1031 -0.5887,1.1951 -1.1219,2.6881 -2.5622,2.6031 -0.2293,-0.0133 -1.476,-0.4955 -2.0854,-0.7234"
         style="fill:#1f1b20;fill-opacity:1;fill-rule:evenodd;stroke:none"
         id="path4168"
         inkscape:connector-curvature="0" />
      <path
         d="m 167.0204,69.4182 -7.662,21.0518 -4.953,-1.8026 -0.9116,-6.9888 c 0,0 1.6812,0.0465 4.1947,-3.092 0.6055,-0.7557 1.4573,-1.7439 2.3593,-3.1856 1.1021,-1.7606 1.8091,-3.056 2.325,-4.1029 0.589,-1.1953 1.1219,-2.6883 2.5622,-2.6033 0.2296,0.0136 1.476,0.4958 2.0854,0.7234 m 0,0 -7.662,21.0518 4.9527,1.8028 5.1905,-4.7679 c 0,0 -1.3175,-1.0448 -1.2257,-5.0649 0.0218,-0.968 0.004,-2.2723 0.2404,-3.9566 0.2874,-2.0571 0.5785,-3.5042 0.8563,-4.6378 0.3172,-1.294 0.8683,-2.7805 -0.2897,-3.6411 -0.1845,-0.1372 -1.449,-0.5692 -2.0625,-0.7863"
         style="fill:#1f1b20;fill-opacity:1;fill-rule:evenodd;stroke:none"
         id="path4170"
         inkscape:connector-curvature="0" />
      <path
         d="m 77.7019,175.8688 19.4009,-11.2022 -2.6357,-4.5647 -7.0407,0.3164 c 0,0 0.3379,1.6475 -2.3164,4.6681 -0.639,0.7273 -1.4641,1.7376 -2.7273,2.8766 -1.5426,1.3909 -2.6954,2.3125 -3.6368,3.0021 -1.0749,0.7878 -2.4525,1.5718 -2.1186,2.9756 0.0533,0.2236 0.7444,1.3674 1.0746,1.9281 m 0,0 19.4009,-11.2022 2.6356,4.5643 -3.7939,5.9397 c 0,0 -1.2577,-1.116 -5.2007,-0.3274 -0.9496,0.1899 -2.2371,0.3994 -3.8548,0.9241 -1.9761,0.6404 -3.3503,1.1784 -4.4184,1.6486 -1.2195,0.5372 -2.5875,1.3383 -3.6363,0.3473 -0.1669,-0.1576 -0.8121,-1.3283 -1.1324,-1.8944"
         style="fill:#1f1b20;fill-opacity:1;fill-rule:evenodd;stroke:none"
         id="path4172"
         inkscape:connector-curvature="0" />
      <path
         d="m 116.4441,69.4182 7.6621,21.0518 -4.9527,1.8028 -5.1905,-4.7679 c 0,0 1.3175,-1.0448 1.2257,-5.0649 -0.0219,-0.968 -0.005,-2.2723 -0.2404,-3.9566 -0.2874,-2.0571 -0.5786,-3.5042 -0.8564,-4.6378 -0.3172,-1.294 -0.8682,-2.7805 0.2897,-3.6411 0.1846,-0.1372 1.4491,-0.5692 2.0625,-0.7863 m 0,0 7.6621,21.0518 4.9529,-1.8026 0.9117,-6.9888 c 0,0 -1.6813,0.0465 -4.1947,-3.092 -0.6055,-0.7557 -1.4573,-1.7439 -2.3593,-3.1856 -1.1021,-1.7606 -1.8091,-3.056 -2.325,-4.1029 -0.589,-1.1953 -1.1219,-2.6883 -2.5622,-2.6033 -0.2296,0.0136 -1.476,0.4958 -2.0855,0.7234"
         style="fill:#1f1b20;fill-opacity:1;fill-rule:evenodd;stroke:none"
         id="path4174"
         inkscape:connector-curvature="0" />
      <path
         d="m 68.9173,126.0609 22.0626,3.8895 0.9151,-5.1908 -5.597,-4.2835 c 0,0 -0.8003,1.4791 -4.775,2.0869 -0.9573,0.1465 -2.2385,0.39 -3.9385,0.4504 -2.0755,0.0743 -3.5512,0.0391 -4.7157,-0.0377 -1.3297,-0.0876 -2.8891,-0.3722 -3.5354,0.9176 -0.1031,0.2055 -0.3089,1.5262 -0.4161,2.1676 m 0,0 22.0626,3.8895 -0.915,5.1905 -6.7243,2.1115 c 0,0 -0.2461,-1.6636 -3.7735,-3.5938 -0.8496,-0.4648 -1.9704,-1.1321 -3.547,-1.7699 -1.9253,-0.7795 -3.3239,-1.2509 -4.4444,-1.5772 -1.2796,-0.3722 -2.8423,-0.6381 -3.0087,-2.071 -0.0264,-0.2285 0.2318,-1.5398 0.3503,-2.1796"
         style="fill:#1f1b20;fill-opacity:1;fill-rule:evenodd;stroke:none"
         id="path4176"
         inkscape:connector-curvature="0" />
      <path
         d="m 77.7002,101.9282 19.4014,11.2014 -2.6353,4.5646 -7.0407,-0.3161 c 0,0 0.3376,-1.6475 -2.3168,-4.6678 -0.6392,-0.7273 -1.4644,-1.7376 -2.7275,-2.8766 -1.5423,-1.3909 -2.6954,-2.3122 -3.6368,-3.0021 -1.0749,-0.7875 -2.4526,-1.5719 -2.1186,-2.9753 0.053,-0.2236 0.7443,-1.3674 1.0743,-1.9281 m 0,0 19.4014,11.2014 2.6354,-4.5647 -3.7939,-5.9394 c 0,0 -1.258,1.1163 -5.201,0.3277 -0.9496,-0.1899 -2.2371,-0.3994 -3.8548,-0.9238 -1.9758,-0.6404 -3.3503,-1.1784 -4.4184,-1.6486 -1.2195,-0.5372 -2.5875,-1.338 -3.636,-0.3473 -0.1672,0.1579 -0.8121,1.3283 -1.1327,1.8947"
         style="fill:#1f1b20;fill-opacity:1;fill-rule:evenodd;stroke:none"
         id="path4178"
         inkscape:connector-curvature="0" />
      <path
         d="m 94.2035,82.2594 14.4011,17.161 4.0374,-3.3883 -1.5341,-6.8788 c 0,0 -1.5636,0.6188 -4.9992,-1.4706 -0.8274,-0.5032 -1.9658,-1.1401 -3.3066,-2.1864 -1.6378,-1.2776 -2.7453,-2.253 -3.5884,-3.0603 -0.962,-0.9218 -1.9737,-2.1421 -3.2981,-1.5695 -0.2109,0.091 -1.2175,0.9706 -1.7121,1.3929 m 0,0 14.4011,17.161 -4.0376,3.3882 -6.5081,-2.7048 c 0,0 0.8807,-1.4326 -0.5805,-5.1786 -0.3521,-0.9023 -0.7818,-2.1336 -1.5795,-3.636 -0.9737,-1.8346 -1.7422,-3.0946 -2.391,-4.0649 -0.7407,-1.1075 -1.7671,-2.3156 -0.9734,-3.5203 0.1264,-0.1922 1.167,-1.0307 1.669,-1.4446"
         style="fill:#1f1b20;fill-opacity:1;fill-rule:evenodd;stroke:none"
         id="path4180"
         inkscape:connector-curvature="0" />
      <path
         d="m 68.9179,151.7363 22.0623,-3.8903 0.9153,5.1906 -5.5967,4.284 c 0,0 -0.8002,-1.4794 -4.775,-2.0869 -0.9572,-0.1466 -2.2388,-0.39 -3.9384,-0.4504 -2.0758,-0.074 -3.5513,-0.0386 -4.716,0.038 -1.3295,0.0876 -2.8888,0.3724 -3.5354,-0.9173 -0.1029,-0.2055 -0.3087,-1.5262 -0.4161,-2.1677 m 0,0 22.0623,-3.8903 -0.9153,-5.1908 -6.7243,-2.1112 c 0,0 -0.2461,1.6637 -3.7732,3.5943 -0.8496,0.4649 -1.9704,1.1319 -3.547,1.77 -1.925,0.7795 -3.3239,1.2512 -4.4445,1.5772 -1.2792,0.3725 -2.842,0.6383 -3.0084,2.0713 -0.0266,0.2284 0.2316,1.5397 0.3504,2.1795"
         style="fill:#1f1b20;fill-opacity:1;fill-rule:evenodd;stroke:none"
         id="path4182"
         inkscape:connector-curvature="0" />
      <path
         d="m 141.7292,64.9593 8e-4,22.4028 5.2708,-3e-4 3.2465,-6.2555 c 0,0 -1.5956,-0.5312 -2.8843,-4.3401 -0.3107,-0.9173 -0.773,-2.1371 -1.1276,-3.8004 -0.4334,-2.0313 -0.6551,-3.4906 -0.7818,-4.6508 -0.1446,-1.3247 -0.1349,-2.9098 -1.5174,-3.3222 -0.2202,-0.0658 -1.5565,-0.0392 -2.207,-0.0335 m 0,0 8e-4,22.4028 -5.2707,3e-4 -3.2471,-6.2555 c 0,0 1.5956,-0.5312 2.8842,-4.3402 0.3102,-0.9173 0.7725,-2.137 1.1271,-3.8004 0.4334,-2.0313 0.6545,-3.4906 0.7812,-4.6508 0.1446,-1.3246 0.135,-2.9097 1.5174,-3.3227 0.2203,-0.0658 1.5565,-0.0392 2.2071,-0.0335"
         style="fill:#1f1b20;fill-opacity:1;fill-rule:evenodd;stroke:none"
         id="path4184"
         inkscape:connector-curvature="0" />
      <path
         d="m 94.206,195.5367 14.4003,-17.1615 4.0374,3.3879 -1.5335,6.8789 c 0,0 -1.5639,-0.6185 -4.9995,1.4709 -0.8271,0.5031 -1.9655,1.1404 -3.3063,2.1866 -1.6376,1.2776 -2.7454,2.253 -3.5881,3.0603 -0.9624,0.9218 -1.9738,2.1424 -3.2981,1.5698 -0.2109,-0.091 -1.2175,-0.9705 -1.7122,-1.3929 m 0,0 14.4003,-17.1615 -4.0376,-3.388 -6.5081,2.7051 c 0,0 0.8807,1.4324 -0.5805,5.1786 -0.3518,0.9023 -0.7815,2.1337 -1.5792,3.636 -0.9737,1.8346 -1.7422,3.0946 -2.3908,4.0649 -0.7407,1.1078 -1.7671,2.3159 -0.9734,3.5206 0.1264,0.1919 1.1673,1.0304 1.6693,1.4443"
         style="fill:#1f1b20;fill-opacity:1;fill-rule:evenodd;stroke:none"
         id="path4186"
         inkscape:connector-curvature="0" />
      <path
         d="m 189.2563,82.2555 -14.3998,17.162 4.038,3.3877 6.5081,-2.7051 c 0,0 -0.8811,-1.4326 0.5799,-5.1786 0.3518,-0.9023 0.7815,-2.1339 1.5792,-3.636 0.9734,-1.8349 1.7419,-3.0951 2.3905,-4.0652 0.7407,-1.1077 1.7671,-2.3159 0.9731,-3.5206 -0.1264,-0.1919 -1.167,-1.0304 -1.669,-1.4442 m 0,0 -14.3998,17.162 -4.0376,-3.3876 1.5335,-6.8792 c 0,0 1.5639,0.6186 4.9992,-1.4709 0.8274,-0.5034 1.9655,-1.1406 3.3063,-2.1869 1.6376,-1.2776 2.7451,-2.2532 3.5881,-3.0606 0.9621,-0.9218 1.9735,-2.1424 3.2978,-1.5698 0.2109,0.091 1.2175,0.9703 1.7125,1.393"
         style="fill:#1f1b20;fill-opacity:1;fill-rule:evenodd;stroke:none"
         id="path4188"
         inkscape:connector-curvature="0" />
      <path
         d="m 141.7323,212.8348 0,-22.4027 5.2707,0 3.2468,6.2555 c 0,0 -1.5956,0.5312 -2.8842,4.3401 -0.3104,0.9173 -0.7727,2.137 -1.1274,3.8004 -0.4334,2.0313 -0.6548,3.4906 -0.7815,4.6508 -0.1445,1.3246 -0.1349,2.9098 -1.5174,3.3225 -0.2202,0.0657 -1.5565,0.0391 -2.207,0.0334 m 0,0 0,-22.4027 -5.2708,0 -3.2468,6.2555 c 0,0 1.5957,0.5312 2.8843,4.3401 0.3104,0.9173 0.7727,2.137 1.1273,3.8004 0.4334,2.0313 0.6548,3.4906 0.7815,4.6508 0.1446,1.3246 0.135,2.9098 1.5174,3.3225 0.2203,0.0657 1.5565,0.0391 2.2071,0.0334"
         style="fill:#1f1b20;fill-opacity:1;fill-rule:evenodd;stroke:none"
         id="path4190"
         inkscape:connector-curvature="0" />
    </g>
  </g>
  <g
     inkscape:groupmode="layer"
     id="layer3"
     inkscape:label="Layer 2"
     style="display:inline"
     transform="translate(-13.316406,-3.203125)" />
</svg>
